@startuml
skinparam monochrome true
skinparam packageStyle rectangle
skinparam shadowing false

left to right direction

skinparam classAttributeIconSize 0

hide circle
hide methods

title Domain Model- US007

class User {
    name
    passportCardNumber
    taxNumber
    emailAddress
    phoneNumber
    password
}

class Location {
    street
    city
    state
    zip-code
}

class UnregisteredUser {
}

User ---> Location : has
UnregisteredUser "1" ---> "1*" User: registers
@enduml
@startuml
skinparam monochrome true
skinparam packageStyle rectangle
skinparam shadowing false

left to right direction

skinparam classAttributeIconSize 0

hide circle
hide methods

title Domain Model- US007

class User {
    name
    passportCardNumber
    taxNumber
    emailAddress
    phoneNumber
    password
}

class Location {
    street
    city
    state
    zip-code
}

class UnregisteredUser {
}

User ---> Location : has
UnregisteredUser "1" ---> "1*" User: registers
@enduml