@startuml
skinparam monochrome true
skinparam packageStyle rectangle
skinparam shadowing false

'left to right direction

skinparam classAttributeIconSize 0

hide circle
hide methods


class TypeOfBusiness {
designation
}


class UnregisteredUser {
designation
}

class Property {
sortCriteria
}
class TypeOfProperties {
numberOfBedrooms
}

UnregisteredUser "1" -- " 1.." Property : < is displayed by
Property "1" -- "1" TypeOfBusiness : is categorized by >
Property "1" - "1"  TypeOfProperties : > is categorized by


@enduml
