@startuml
skinparam monochrome true
skinparam packageStyle rectangle
skinparam shadowing false

'left to right direction

skinparam classAttributeIconSize 0

hide circle
hide methods

class Location{
    street
    district
    zipcode
    city
    state
}

class Employee{
}

class Role{
designation
}

class Person {
    name
    taxNumber
    email
    phoneNumber
    passportCardNumber

}

class Agency {
  id
  designation
  phoneNumber
  emailAdress


}




'class User {
'    name
'    email
'    password
'}


Person "1" -- "1" Location : is located  >
Agency "1" - "1" Employee: assigned in <
Agency "1" -- "1" Location : has a  >
Employee " " --|> " " Person
Role "1" -- "1" Employee: has a <

@enduml

